<mxfile host="65bd71144e">
    <diagram name="Page-1" id="c4acf3e9-155e-7222-9cf6-157b1a14988f">
        <mxGraphModel dx="344" dy="222" grid="1" gridSize="10" guides="1" tooltips="1" connect="1" arrows="1" fold="1" page="1" pageScale="1" pageWidth="850" pageHeight="1100" background="none" math="0" shadow="0">
            <root>
                <mxCell id="0"/>
                <mxCell id="1" parent="0"/>
                <mxCell id="KidopOKFZUAFMkktDd2t-1" value="CloneDemo" style="swimlane;fontStyle=1;align=center;verticalAlign=top;childLayout=stackLayout;horizontal=1;startSize=26;horizontalStack=0;resizeParent=1;resizeParentMax=0;resizeLast=0;collapsible=1;marginBottom=0;" parent="1" vertex="1">
                    <mxGeometry x="230" y="240" width="220" height="90" as="geometry">
                        <mxRectangle x="350" y="220" width="80" height="30" as="alternateBounds"/>
                    </mxGeometry>
                </mxCell>
                <mxCell id="KidopOKFZUAFMkktDd2t-2" value="+ name: string" style="text;align=left;verticalAlign=middle;spacingLeft=4;spacingRight=4;overflow=hidden;rotatable=0;points=[[0,0.5],[1,0.5]];portConstraint=eastwest;fontStyle=0;" parent="KidopOKFZUAFMkktDd2t-1" vertex="1">
                    <mxGeometry y="26" width="220" height="30" as="geometry"/>
                </mxCell>
                <mxCell id="KidopOKFZUAFMkktDd2t-3" value="" style="line;strokeWidth=1;fillColor=none;align=left;verticalAlign=middle;spacingTop=-1;spacingLeft=3;spacingRight=3;rotatable=0;labelPosition=right;points=[];portConstraint=eastwest;strokeColor=inherit;" parent="KidopOKFZUAFMkktDd2t-1" vertex="1">
                    <mxGeometry y="56" width="220" height="8" as="geometry"/>
                </mxCell>
                <mxCell id="KidopOKFZUAFMkktDd2t-4" value="+ clone(): CloneDemo" style="text;strokeColor=none;fillColor=none;align=left;verticalAlign=top;spacingLeft=4;spacingRight=4;overflow=hidden;rotatable=0;points=[[0,0.5],[1,0.5]];portConstraint=eastwest;fontStyle=0" parent="KidopOKFZUAFMkktDd2t-1" vertex="1">
                    <mxGeometry y="64" width="220" height="26" as="geometry"/>
                </mxCell>
                <mxCell id="txwDJevd9w8tnihkNgy9-2" value="" style="endArrow=open;endFill=1;endSize=12;html=1;rounded=0;entryX=0.5;entryY=0;entryDx=0;entryDy=0;dashed=1;" parent="1" target="KidopOKFZUAFMkktDd2t-1" edge="1">
                    <mxGeometry width="160" relative="1" as="geometry">
                        <mxPoint x="450" y="290" as="sourcePoint"/>
                        <mxPoint x="610" y="290" as="targetPoint"/>
                        <Array as="points">
                            <mxPoint x="470" y="290"/>
                            <mxPoint x="470" y="200"/>
                            <mxPoint x="340" y="200"/>
                        </Array>
                    </mxGeometry>
                </mxCell>
                <mxCell id="txwDJevd9w8tnihkNgy9-4" value="自依赖" style="edgeLabel;html=1;align=center;verticalAlign=middle;resizable=0;points=[];" parent="txwDJevd9w8tnihkNgy9-2" vertex="1" connectable="0">
                    <mxGeometry x="-0.0373" y="-1" relative="1" as="geometry">
                        <mxPoint as="offset"/>
                    </mxGeometry>
                </mxCell>
            </root>
        </mxGraphModel>
    </diagram>
</mxfile>